<?xml version="1.0" encoding="UTF-8" standalone="no"?>
<svg
   xmlns:dc="http://purl.org/dc/elements/1.1/"
   xmlns:cc="http://creativecommons.org/ns#"
   xmlns:rdf="http://www.w3.org/1999/02/22-rdf-syntax-ns#"
   xmlns:svg="http://www.w3.org/2000/svg"
   xmlns="http://www.w3.org/2000/svg"
   xmlns:sodipodi="http://sodipodi.sourceforge.net/DTD/sodipodi-0.dtd"
   xmlns:inkscape="http://www.inkscape.org/namespaces/inkscape"
   id="svg22"
   viewBox="0 0 512 512"
   version="1.1"
   sodipodi:docname="start_apple_white_small.svg"
   width="512"
   height="512"
   inkscape:version="1.0.1 (3bc2e81, 2020-09-07)">
  <sodipodi:namedview
     pagecolor="#ffffff"
     bordercolor="#666666"
     borderopacity="1"
     objecttolerance="10"
     gridtolerance="10"
     guidetolerance="10"
     inkscape:pageopacity="0"
     inkscape:pageshadow="2"
     inkscape:window-width="1609"
     inkscape:window-height="1130"
     id="namedview640"
     showgrid="false"
     inkscape:zoom="1.2265625"
     inkscape:cx="27"
     inkscape:cy="215.51681"
     inkscape:window-x="0"
     inkscape:window-y="52"
     inkscape:window-maximized="0"
     inkscape:current-layer="svg22"
     inkscape:document-rotation="0" />
  <metadata
     id="metadata24">
    <rdf:RDF>
      <cc:Work
         rdf:about="">
        <dc:format>image/svg+xml</dc:format>
        <dc:type
           rdf:resource="http://purl.org/dc/dcmitype/StillImage" />
        <dc:title />
      </cc:Work>
    </rdf:RDF>
  </metadata>
  <defs
     id="defs5">
    <style
       type="text/css"
       id="current-color-scheme"> .ColorScheme-Text { color:#363636; } </style>
  </defs>
  <g
     fill="currentColor"
     class="ColorScheme-Text"
     transform="matrix(36.540282,0,0,35.78107,1431.3949,776.21417)"
     id="start-here-kde"
     style="fill:#f2f2f2">
    <rect
       id="rect17"
       opacity="0"
       ry="0.45344001"
       height="16"
       width="16"
       y="-23"
       x="-40"
       style="fill:#f2f2f2" />
    <path
       id="path19"
       d="m -30.38,-18.735 c 0.37942,-0.4724 0.63668,-1.1142 0.5657,-1.7647 -0.54648,0.02292 -1.2274,0.37958 -1.6218,0.83823 -0.34844,0.40693 -0.65797,1.0721 -0.5778,1.699 0.61327,0.04577 1.2414,-0.31032 1.6339,-0.77246 z m 1.3827,4.087 c -0.0131,-1.3911 1.1383,-2.0666 1.1904,-2.0988 -0.65139,-0.95071 -1.6614,-1.0795 -2.0175,-1.0913 -0.84882,-0.08649 -1.6705,0.51 -2.1035,0.51 -0.44068,-6.1e-5 -1.1062,-0.49968 -1.8229,-0.48547 -0.92387,0.01381 -1.789,0.54876 -2.2626,1.3772 -0.97503,1.6931 -0.24816,4.1799 0.68833,5.5452 0.46912,0.67207 1.0156,1.4201 1.7323,1.3906 0.70102,-0.026645 0.96236,-0.4451 1.8097,-0.4451 0.83842,0 1.084,0.4451 1.8155,0.43078 0.75278,-0.012344 1.2262,-0.67328 1.6791,-1.3481 0.53935,-0.76985 0.75713,-1.5246 0.76582,-1.5648 -0.01678,-0.0062 -1.4591,-0.55477 -1.4746,-2.2202 z"
       style="fill:#f2f2f2" />
  </g>
</svg>
